<svg width="417" height="174" viewBox="0 0 417 174" fill="none" xmlns="http://www.w3.org/2000/svg">
<path d="M398.045 72.4999H64.7151L127.13 24.7523C134.532 19.0905 134.532 9.90907 127.13 4.24633C119.729 -1.41544 107.727 -1.41544 100.324 4.24633L5.55178 76.7464C-1.85059 82.4082 -1.85059 91.5896 5.55178 97.2524L100.324 169.752C104.027 172.584 108.877 174 113.728 174C118.579 174 123.43 172.584 127.13 169.752C134.532 164.091 134.532 154.909 127.13 149.247L64.7151 101.5H398.045C408.513 101.5 417 95.0078 417 86.9999C417 78.992 408.513 72.4999 398.045 72.4999Z" fill="#F44336"/>
</svg>
