<svg width="239" height="403" viewBox="0 0 239 403" fill="none" xmlns="http://www.w3.org/2000/svg">
<path d="M216.02 0H22.9809C10.3094 0 0 11.3848 0 25.378V387.773C0 393.296 2.70707 398.381 7.07345 401.072C9.1647 402.361 11.4769 403 13.7884 403C16.3073 403 18.8169 402.244 21.0365 400.732L119.527 333.582L218.005 400.244C222.261 403.132 227.597 403.249 231.949 400.549C236.302 397.859 239 392.779 239 387.266V25.378C239 11.3848 228.691 0 216.02 0ZM211.423 360.066L126.711 302.717C122.272 299.712 116.683 299.727 112.257 302.742L27.5768 360.476V30.4533H211.423V360.066Z" fill="black"/>
</svg>
